<svg xmlns="http://www.w3.org/2000/svg" width="24" height="24" viewBox="0 0 6.35 6.35" id="Import">
  <path d="M4.497 0a.265.265 0 0 0-.264.263v1.06c0 .435.358.793.793.793h1.06a.265.265 0 0 0 0-.529h-1.06a.26.26 0 0 1-.263-.264V.263A.265.265 0 0 0 4.497 0Z" color="#000" fill="#374151" class="color000000 svgShape"></path>
  <path d="M2.117 0a.798.798 0 0 0-.795.793V2.91a.265.265 0 0 0 .266.266.265.265 0 0 0 .264-.266V.793a.26.26 0 0 1 .265-.264H4.39L5.82 1.961v3.596a.26.26 0 0 1-.263.263h-3.44a.26.26 0 0 1-.265-.263v-.53a.265.265 0 0 0-.264-.265.265.265 0 0 0-.266.265v.53c0 .435.36.793.795.793h3.44a.796.796 0 0 0 .793-.793V1.852a.265.265 0 0 0-.077-.188L4.686.078A.265.265 0 0 0 4.498 0Z" color="#000" fill="#374151" class="color000000 svgShape"></path>
  <path d="M.264 4.234a.265.265 0 0 1 0-.529h3.175a.265.265 0 1 1 0 .53z" color="#000" fill="#374151" class="color000000 svgShape"></path>
  <path d="M2.723 2.988a.265.265 0 0 0 0 .373l.607.608-.607.607a.265.265 0 0 0 0 .373.265.265 0 0 0 .375 0l.793-.793a.265.265 0 0 0 0-.375l-.793-.793a.265.265 0 0 0-.375 0z" color="#000" style="-inkscape-stroke:none" fill="#374151" class="color000000 svgShape"></path>
</svg>
